<svg xmlns="http://www.w3.org/2000/svg" width="512" height="512"><path d="M231.467 1.053C185.281 5.539 137.78 24.095 102 51.627c-5.225 4.021-10.737 8.354-12.25 9.629L87 63.575V448.63l8.75 6.96c12.469 9.918 17.286 13.264 30.003 20.841 64.006 38.135 143.903 45.962 215.132 21.074 27.108-9.471 53.708-24.338 76.052-42.505l7.994-6.5.034-192.5.034-192.5-8.25-6.601C377.498 25.491 332.838 6.97 283.293 1.553c-14.794-1.617-38.018-1.841-51.826-.5M118 255.862v132.996l5.25 1.034a402.07 402.07 0 009.25 1.703c6.717 1.123 7.591 1.299 9.58 1.93 1.865.592 1.92-.269 1.92-29.958 0-29.432.071-30.567 1.912-30.567 2.391 0 2.41.126 5.204 34 1.202 14.575 2.575 27.006 3.052 27.623.477.618 3.222 1.416 6.099 1.773 2.878.356 7.145.914 9.483 1.24l4.25.591V333h2.5c1.711 0 2.502.552 2.508 1.75.004.962 1.125 15.925 2.492 33.25s2.488 31.559 2.492 31.632c.005.072 3.946.445 8.758.828 4.813.383 9.65.907 10.75 1.164 1.972.462 1.996.028 1.723-31.578L204.946 338H209.653l2.318 31.75c1.275 17.462 2.591 32.03 2.924 32.373.333.342 5.218.886 10.855 1.208l10.25.585v-30.458c0-29.556.058-30.458 1.955-30.458 1.433 0 2.092.868 2.47 3.25.587 3.701 4.575 52.079 4.575 55.504 0 2.192.265 2.246 11 2.246h11v-30.5c0-29.308.074-30.5 1.902-30.5 2.214 0 2.09-.866 5.153 35.962 1.12 13.454 2.189 24.616 2.377 24.803.188.188 4.893.029 10.455-.354l10.113-.697V338h2.5c1.717 0 2.498.548 2.493 1.75-.014 3.55 4.141 57.828 4.597 60.046.501 2.443 1.754 2.487 17.16.601l4.25-.52v-67.016l2.25.319c1.924.274 2.294 1.015 2.557 5.119.253 3.961.602 4.714 2 4.308.931-.27 6.756-1.48 12.943-2.689 10.534-2.059 11.25-2.349 11.25-4.558 0-1.693.565-2.36 2-2.36 1.1 0 2.023.113 2.051.25.028.137 1.12 13.68 2.427 30.094 1.308 16.415 2.596 30.063 2.863 30.331.427.426 19.23-2.961 23.909-4.306 1.655-.477 1.75-7.696 1.75-133.504 0-126.202-.089-132.973-1.75-132.469-8.625 2.616-51.02 9.204-78.25 12.16-20.072 2.179-67.363 2.997-88.5 1.532-33.929-2.353-92.529-9.958-105.75-13.724-1.66-.473-1.75 6.311-1.75 132.498m36-64.429c0 4.162.142 7.567.315 7.567.173 0 9.735.877 21.25 1.949 56.246 5.235 114.16 4.911 169.788-.95 5.031-.531 9.935-.972 10.897-.982 1.51-.015 1.75-1.048 1.75-7.536 0-7.279-.072-7.503-2.25-7.019-3.12.694-35.771 3.317-56.25 4.52-21.719 1.276-72.561 1.278-92 .004-19.324-1.266-49.495-3.955-51.75-4.611-1.557-.454-1.75.323-1.75 7.058m0 30.825v7.433l18.25 1.679c58.712 5.399 102.056 5.393 166-.022l19.75-1.673v-14.902l-4.25.596c-18.966 2.662-71.89 5.616-100.75 5.624-28.503.008-77.615-2.875-95.25-5.591l-3.75-.578v7.434m0 30.663c0 8.227-2.089 7.32 22 9.547 52.096 4.817 98.776 4.812 158-.017 26.295-2.144 24-1.22 24-9.669v-7.058l-6.745.691c-65.041 6.664-130.285 6.874-185.065.597-13.267-1.52-12.19-2.042-12.19 5.909m0 30.631v7.221l4.25.614c18.941 2.739 67.316 5.615 94.25 5.603 27.646-.013 79.485-2.914 100.75-5.639l4.75-.609v-14.295l-11.75 1.175c-38.185 3.818-84.866 5.529-118.017 4.325-22.913-.831-56.045-3.175-68.483-4.844l-5.75-.772v7.221M332.336 378c0 4.125.177 5.813.392 3.75.216-2.062.216-5.437 0-7.5-.215-2.062-.392-.375-.392 3.75" fill="undefined" fill-rule="evenodd"/></svg>